<?xml version="1.0" encoding="utf-8"?>
<!-- Generator: Adobe Illustrator 25.2.0, SVG Export Plug-In . SVG Version: 6.00 Build 0)  -->
<svg version="1.1" id="Layer_1" xmlns="http://www.w3.org/2000/svg" xmlns:xlink="http://www.w3.org/1999/xlink" x="0px" y="0px"
	 viewBox="0 0 339.73 358.9" style="enable-background:new 0 0 339.73 358.9;" xml:space="preserve">
<style type="text/css">
	.st0{fill:url(#SVGID_2_);}
	.st1{fill:url(#SVGID_1_);}
	.st2{fill:#FBCBAB;}
	.st3{fill:#ECA182;}
	.st4{fill:#DB9172;}
</style>
<circle class="st0" cx="169.52" cy="190.36" r="142.91"/>
<linearGradient id="SVGID_1_" gradientUnits="userSpaceOnUse" x1="48.6187" y1="278.1609" x2="290.4102" y2="278.1609">
	<stop  offset="0" style="stop-color:#2581C4"/>
	<stop  offset="1" style="stop-color:#2D2E83"/>
</linearGradient>
  <linearGradient id="SVGID_2_" gradientUnits="userSpaceOnUse" x1="26.61" y1="181.7801" x2="312.43" y2="181.7801" gradientTransform="matrix(1 0 0 -1 0 360)">
	<stop  offset="0" style="stop-color:#0cc600"/>
	<stop  offset="1" style="stop-color:#2591ff"/>
</linearGradient>
<path class="st1" d="M290.41,266.58c-25.3,40.08-69.99,66.69-120.9,66.69c-50.9,0-95.58-26.61-120.9-66.69
	c4.51-10.48,11.98-19.5,24.03-26.47c11.02-6.38,26.42-10.65,43.48-13.31c17.05-2.66,35.76-3.74,53.38-3.74
	c35.25,0,74.82,4.29,96.87,17.05C278.43,247.07,285.9,256.1,290.41,266.58z"/>
<path class="st2" d="M204.73,225.15V191.1h-70.41v34.05c-10.69,1.82-18.13,5.47-18.13,13.14c0,14.97,20.28,30.54,53.33,30.54
	c34.24,0,53.33-15.57,53.33-30.54C222.86,230.61,215.42,226.96,204.73,225.15z"/>
<path class="st2" d="M126.55,149.44c0-10.58-4.64-23.45-10.36-23.45c-5.72,0-11.58,2.04-11.58,12.62c0,5.09,1.81,16.5,3.56,21.51
	c1.89,5.39,5.05,8.49,8.02,8.49C121.91,168.59,126.55,160.02,126.55,149.44z"/>
<path class="st3" d="M212.49,149.44c0-10.58,4.64-23.45,10.36-23.45s11.59,2.04,11.59,12.62c0,5.09-1.81,16.5-3.56,21.51
	c-1.89,5.39-5.05,8.49-8.02,8.49C217.13,168.59,212.49,160.02,212.49,149.44z"/>
<path class="st4" d="M204.73,199.06v18.07c-1.47,1.28-3,2.49-4.61,3.62c-6.14,4.32-10.46,7.1-14.48,8.79
	c-4.04,1.7-7.76,2.32-12.69,2.32c-9.86,0-14.91-2.48-27.16-11.11c-4.32-3.05-8.15-6.64-11.47-10.8v-10.88
	c2.44,2.54,5.13,4.84,8.03,6.89c12.26,8.64,17.31,11.12,27.18,11.12c4.93,0,8.66-0.62,12.69-2.32c4.02-1.7,8.34-4.48,14.48-8.8
	C199.61,203.91,202.29,201.62,204.73,199.06z"/>
<path class="st2" d="M169.52,60.94L169.52,60.94L169.52,60.94c-42.38,0-53.94,36.53-53.94,81.58c0,29.88,9.34,51.17,26.77,63.45
	c12.26,8.64,17.31,11.11,27.17,11.11v0v0c9.86,0,14.91-2.47,27.17-11.11c17.43-12.28,26.77-33.57,26.77-63.45
	C223.46,97.46,211.9,60.94,169.52,60.94z"/>
<path class="st3" d="M169.52,60.94c-0.73,0-1.43,0.04-2.15,0.06c37.5,1.23,47.83,37.25,47.83,81.52c0,29.88-8.63,51.17-24.72,63.45
	c-10.47,7.99-15.25,10.7-23.11,11.06c0.69,0.03,1.4,0.05,2.15,0.05c9.86,0,14.91-2.47,27.17-11.11
	c17.43-12.28,26.77-33.57,26.77-63.45C223.46,97.46,211.9,60.94,169.52,60.94z"/>
</svg>
