<?xml version="1.0" encoding="utf-8"?>
<!-- Generator: Adobe Illustrator 25.2.0, SVG Export Plug-In . SVG Version: 6.00 Build 0)  -->
<svg version="1.1" id="Layer_1" xmlns="http://www.w3.org/2000/svg" xmlns:xlink="http://www.w3.org/1999/xlink" x="0px" y="0px"
	 viewBox="0 0 339.73 358.9" style="enable-background:new 0 0 339.73 358.9;" xml:space="preserve">
<style type="text/css">
	.st0{fill:url(#SVGID_2_);}
	.st1{fill:url(#SVGID_1_);}
	.st2{fill:url(#SVGID_3_);}
	.st3{fill:#ECA182;}
	.st4{fill:#FBCBAB;}
	.st5{fill:#DB9172;}
	.st6{fill:#1D2247;}
	.st7{fill:#373F85;}
	.st8{opacity:0.5;fill:#29235C;enable-background:new    ;}
	.st9{clip-path:url(#SVGID_6_);}
	.st10{clip-path:url(#SVGID_7_);fill:url(#SVGID_8_);}
</style>
  <linearGradient id="SVGID_1_" gradientUnits="userSpaceOnUse" x1="26.61" y1="181.7801" x2="312.43" y2="181.7801" gradientTransform="matrix(1 0 0 -1 0 360)">
	<stop  offset="0" style="stop-color:#0cc600"/>
	<stop  offset="1" style="stop-color:#2591ff"/>
</linearGradient>
<linearGradient id="SVGID_2_" gradientUnits="userSpaceOnUse" x1="26.62" y1="181.8449" x2="312.44" y2="181.8449" gradientTransform="matrix(1 0 0 -1 0 360)">
	<stop  offset="0" style="stop-color:#2581C4"/>
	<stop  offset="1" style="stop-color:#29235C"/>
</linearGradient>
<path class="st0" d="M227.89,56.14c-2.71-2.8-6.68-4.41-10.53-5.08c-1.07-0.19-2.1-0.22-3.12-0.2c-3.61-1.19-7.28-2.24-11.01-3.14
	c-1.2-1.48-2.18-3.27-3.42-4.56c-4.15-4.32-9.59-6.64-15.15-8.18c-7.81-2.17-24.12-10.4-32-7.64c-3.63,1.27-9.08,9.97-12.95,10.85
	c-4.75,1.08-7.06,1.92-11.85,2.96c-9.65,2.1-16.19,8.33-20.1,16.57c-48,23.04-81.14,72.1-81.14,128.9
	c0,78.93,63.98,142.91,142.91,142.91s142.91-63.98,142.91-142.91C312.43,128.49,277.72,78.47,227.89,56.14z"/>
<ellipse class="st1" cx="169.52" cy="186.62" rx="142.91" ry="142.91"/>
<linearGradient id="SVGID_3_" gradientUnits="userSpaceOnUse" x1="47.99" y1="86.875" x2="291.08" y2="86.875" gradientTransform="matrix(1 0 0 -1 0 360)">
	<stop  offset="0" style="stop-color:#2581C4"/>
	<stop  offset="1" style="stop-color:#2D2E83"/>
</linearGradient>
<path class="st2" d="M291.08,261.77c-25.19,40.67-70.21,67.76-121.56,67.76c-51.34,0-96.34-27.06-121.53-67.71
	c4.44-11.15,12.03-20.74,24.69-28.05c11.02-6.38,26.42-10.65,43.48-13.31c17.05-2.66,35.76-3.74,53.38-3.74
	c35.25,0,74.83,4.29,96.87,17.05C279.05,241.07,286.64,250.65,291.08,261.77z"/>
<path class="st3" d="M212.52,143.11c0-10.58,4.64-23.45,10.36-23.45s11.59,2.04,11.59,12.62c0,5.09-1.81,16.5-3.56,21.51
	c-1.89,5.39-5.05,8.49-8.02,8.49C217.16,162.27,212.52,153.69,212.52,143.11z"/>
<path class="st4" d="M169.52,54.61L169.52,54.61L169.52,54.61c-42.38,0-53.94,36.53-53.94,81.58c0,29.88,9.34,51.17,26.77,63.45
	c12.26,8.64,17.31,11.11,27.17,11.11l0,0l0,0c9.86,0,14.91-2.47,27.17-11.11c17.43-12.28,26.77-33.57,26.77-63.45
	C223.46,91.14,211.9,54.61,169.52,54.61z"/>
<path class="st4" d="M204.76,218.82v-34.05h-70.41v34.05c-10.69,1.82-18.13,5.47-18.13,13.14c0,14.97,20.28,30.54,53.33,30.54
	c34.24,0,53.33-15.56,53.33-30.54C222.89,224.29,215.45,220.64,204.76,218.82z"/>
<path class="st4" d="M126.58,143.11c0-10.58-4.64-23.45-10.36-23.45s-11.58,2.04-11.58,12.62c0,5.09,1.81,16.5,3.56,21.51
	c1.89,5.39,5.05,8.49,8.02,8.49C121.94,162.27,126.58,153.69,126.58,143.11z"/>
<path class="st5" d="M209.88,218.76c-4.65,9.31-11.02,16.45-22.1,19.57c-6.09,1.72-12.67,0.24-18.91,0.72
	c-6.32,0.48-14.1,0.64-20.05-2.36c-5.34-2.68-9.47-5.96-13.22-10.65c-2.82-3.52-4.53-6.85-6.38-10.48
	c-0.03-0.05-0.05-0.11-0.07-0.15c0.4,1.1,0.83,2.16,1.31,3.2c0.37,0.81,0.75,1.59,1.17,2.36c3.11,5.81,4.75,10.53,8.63,15.65
	c3.54,4.69,7.44,7.97,12.49,10.65c5.63,2.99,11.88,3.56,18.69,3.71c5.92,0.13,12.4-0.34,18.14-2.07
	c11.95-3.55,19.28-17.26,24.15-29.73C212.45,219.04,211.17,218.9,209.88,218.76z"/>
<path class="st3" d="M169.52,54.61c-0.73,0-1.43,0.04-2.15,0.06c37.5,1.23,47.83,37.25,47.83,81.52c0,29.88-8.63,51.17-24.72,63.45
	c-10.47,7.99-15.25,10.7-23.11,11.06c0.69,0.03,1.4,0.05,2.15,0.05c9.86,0,14.91-2.47,27.17-11.11
	c17.43-12.28,26.77-33.57,26.77-63.45C223.46,91.14,211.9,54.61,169.52,54.61z"/>
<path class="st6" d="M228.56,56.85c-2.7-3.25-7.03-5.07-11.2-5.79c-4.07-0.71-7.69,0.77-11.59-1.16c-2.65-1.31-3.96-4.67-5.96-6.75
	c-4.15-4.32-9.59-6.64-15.15-8.18c-7.81-2.17-24.12-10.4-32-7.64c-3.63,1.27-9.08,9.97-12.95,10.85c-4.75,1.08-7.06,1.92-11.85,2.96
	c-16.89,3.67-24.27,20.01-24.69,37.64c-0.24,10.25,4.69,19.87,6.48,29.87c1.32,7.38-0.5,13.48,2.61,22.26
	c2.66,7.51,5.44,34.29,5.55,38.12c0.41,13.59,1.91,29.42,8.66,41.35c3.29,5.82,5.03,10.53,9.13,15.66
	c3.74,4.69,7.87,7.96,13.22,10.65c5.94,2.98,13.73,2.84,20.05,2.36c6.24-0.47,12.82,1,18.91-0.71
	c14.44-4.07,20.87-14.96,25.96-28.56c3.07-8.22,7.61-15.39,7.95-31.36c0.6-29.05,4.3-47.43,3.64-63.33
	C224.58,97.13,242,73.03,228.56,56.85z M209.27,169.76c-4.49,3.72-9.15,3-14.07,6.23c-6.07,3.99-13.08,9.48-20.31,10.15
	c-5.98,0.55-11.85-0.05-17.27-2.94c-5.56-2.97-10.06-6.53-15.25-10.04c-4.35-2.95-9.55-2.56-13.89-5.18
	c-5.36-3.23-8.13-10.28-8.77-16.15c-0.19-1.73-0.4-13.59-0.33-14.82c0.56-9.23,1.17-19.02,1.62-28.33
	c0.42-8.67,1.03-21.26,8.21-27.12c6.6-5.39,16.1-1.63,23.61-0.45c11.34,1.79,19.96-0.63,30.77-3.1c8.15-1.86,18-1.81,25,3.92
	c8.49,6.95,6.98,18.56,7.56,28.39c0.55,9.33,2.47,15,3.09,26.33c0.47,8.69,0.77,14.48-0.55,18.73
	C216.96,160.99,213.96,165.87,209.27,169.76z"/>
<path class="st7" d="M212.46,174.38c-1.81-1.68-9.15-1.99-14.02-4.93c-3.94-2.38-6.27-5.52-10.24-7.66
	c-7.52-4.04-11.39-1.1-18.68-1.1l0,0l0,0c-7.29,0-11.16-2.94-18.68,1.1c-3.97,2.13-6.3,5.28-10.24,7.66
	c-4.87,2.94-12.21,3.25-14.02,4.93c-6.42,5.96,13.3,3.68,16.05,3.25c9.44-1.48,17.69-4.98,26.89-4.98l0,0l0,0
	c9.2,0,17.45,3.5,26.89,4.98C199.16,178.06,218.88,180.34,212.46,174.38z"/>
<path class="st7" d="M163.41,42.31c1.66-7.72,38.39,2.93,36.39,0.84c-4.15-4.32-9.59-6.64-15.15-8.18c-7.81-2.17-24.12-10.4-32-7.64
	c-3.63,1.27-9.08,9.97-12.95,10.85c-4.75,1.08-7.06,1.92-11.85,2.96c-16.89,3.67-24.27,20.01-24.69,37.64
	c-0.24,10.25,4.69,19.87,6.48,29.87c1.32,7.38-0.5,13.48,2.61,22.26c2.66,7.51,5.44,34.29,5.55,38.12
	c0.41,13.59,1.91,29.42,8.66,41.35c3.29,5.82,5.03,10.53,9.13,15.66c3.74,4.69,5.3-1.04,0.17-13.87
	c-3.33-8.33-6.28-13.74-8.94-18.04c-13.74-22.18-6.08-47.88-11.25-67.62c-6.72-25.67,6.09-39.73,3.8-57.44
	C115.58,39.66,160.12,57.67,163.41,42.31z"/>
<path class="st5" d="M219.26,136.67c0.01,0.16,0.01,0.32,0.03,0.48c0-0.09-0.01-0.2-0.03-0.3c-1.26-8.4-3.2-11.83-4.04-21.76
	c-0.68-8.22-1.81-18.2-8.44-23.81c-6.48-5.5-12.46-5.14-20.61-3.58c-10.82,2.07-16.65,2.48-25.08,0.74
	c-7.42-1.53-18.65-5.4-26.38-2.65c-8.2,2.93-11.59,17.22-12.36,28.8c-0.52,7.8-2.42,14.82-2.98,22.55v-0.12
	c0.56-9.24,1.18-19.03,1.63-28.34c0.41-8.67,1.02-21.25,8.21-27.12c6.61-5.39,16.1-1.63,23.61-0.44c11.34,1.79,19.96-0.64,30.78-3.1
	c8.14-1.87,18-1.81,24.99,3.92c8.49,6.95,6.98,18.55,7.56,28.38C216.72,119.65,218.64,125.34,219.26,136.67z"/>
<path class="st8" d="M219.33,137.78L219.33,137.78c-0.01-0.08-0.01-0.18-0.02-0.27C219.31,137.61,219.31,137.7,219.33,137.78z"/>
<path class="st3" d="M182.88,174.59c-4.4-1.06-8.77-1.93-13.36-1.93c-7.6,0-14.57,2.38-22.08,4.05c1.77,1.26,3.54,2.49,5.36,3.65
	c-1.29-3.32,9.32-4.76,17.15-4.76c8.82,0,19.94,2.82,16.99,5.84c2.28-1.39,4.49-2.9,6.58-4.32
	C189.87,176.39,186.36,175.43,182.88,174.59z"/>
<g>
	<g>
		<defs>
			<polygon id="SVGID_4_" points="1,1 2,1 1,2 			"/>
		</defs>
		<defs>
			<polygon id="SVGID_5_" points="-1,-1 -2,-1 -1,-2 			"/>
		</defs>
		<clipPath id="SVGID_6_">
			<use xlink:href="#SVGID_4_"  style="overflow:visible;"/>
		</clipPath>
		<clipPath id="SVGID_7_" class="st9">
			<use xlink:href="#SVGID_5_"  style="overflow:visible;"/>
		</clipPath>
		
			<linearGradient id="SVGID_8_" gradientUnits="userSpaceOnUse" x1="26.62" y1="181.8449" x2="312.44" y2="181.8449" gradientTransform="matrix(1 0 0 -1 0 360)">
			<stop  offset="0" style="stop-color:#BFBFBF"/>
			<stop  offset="1" style="stop-color:#000000"/>
		</linearGradient>
		<path class="st10" d="M227.89,56.14c-2.71-2.8-6.68-4.41-10.53-5.08c-1.07-0.19-2.1-0.22-3.12-0.2
			c-3.61-1.19-7.28-2.24-11.01-3.14c-1.2-1.48-2.18-3.27-3.42-4.56c-4.15-4.32-9.59-6.64-15.15-8.18c-7.81-2.17-24.12-10.4-32-7.64
			c-3.63,1.27-9.08,9.97-12.95,10.85c-4.75,1.08-7.06,1.92-11.85,2.96c-9.65,2.1-16.19,8.33-20.1,16.57
			c-48,23.04-81.14,72.1-81.14,128.9c0,78.93,63.98,142.91,142.91,142.91s142.91-63.98,142.91-142.91
			C312.43,128.49,277.72,78.47,227.89,56.14z"/>
	</g>
</g>
</svg>
