<?xml version="1.0" encoding="utf-8"?>
<!-- Generator: Adobe Illustrator 25.2.0, SVG Export Plug-In . SVG Version: 6.00 Build 0)  -->
<svg version="1.1" id="Layer_1" xmlns="http://www.w3.org/2000/svg" xmlns:xlink="http://www.w3.org/1999/xlink" x="0px" y="0px"
	 viewBox="0 0 339.73 358.9" style="enable-background:new 0 0 339.73 358.9;" xml:space="preserve">
<style type="text/css">
	.st0{fill:url(#SVGID_2_);}
	.st1{fill:url(#SVGID_1_);}
	.st2{fill:url(#SVGID_3_);}
	.st3{fill:#FBCBAB;}
	.st4{fill:#ECA182;}
	.st5{fill:#DB9172;}
	.st6{fill:#1D2247;}
	.st7{fill:#373F85;}
	.st8{clip-path:url(#SVGID_6_);}
	.st9{clip-path:url(#SVGID_7_);fill:url(#SVGID_8_);}
</style>
<linearGradient id="SVGID_1_" gradientUnits="userSpaceOnUse" x1="26.61" y1="181.7801" x2="312.43" y2="181.7801" gradientTransform="matrix(1 0 0 -1 0 360)">
	<stop  offset="0" style="stop-color:#0cc600"/>
	<stop  offset="1" style="stop-color:#2591ff"/>
</linearGradient>
<linearGradient id="SVGID_2_" gradientUnits="userSpaceOnUse" x1="26.61" y1="181.7801" x2="312.43" y2="181.7801" gradientTransform="matrix(1 0 0 -1 0 360)">
	<stop  offset="0" style="stop-color:#2581C4"/>
	<stop  offset="1" style="stop-color:#29235C"/>
</linearGradient>
<path class="st0" d="M229.87,60.79c-2.76-4.93-6.23-8.77-10.25-9.32c-4.43-0.6-7.22,1.9-10.59,0.33
	c-2.76-1.28-14.63-15.87-24.83-20.97c-12.36-6.18-30.44-9.99-42.71-6.01c-15.06,4.89-14.46,17.25-20.22,22.01
	c-5.37,4.44-14.29,9.51-16.17,15.92C58.53,86.3,26.61,134.59,26.61,190.34c0,78.93,63.98,142.91,142.91,142.91
	s142.91-63.98,142.91-142.91C312.43,133,278.63,83.54,229.87,60.79z"/>
<circle class="st1" cx="169.52" cy="190.36" r="142.91"/>
<linearGradient id="SVGID_3_" gradientUnits="userSpaceOnUse" x1="48.61" y1="81.835" x2="290.41" y2="81.835" gradientTransform="matrix(1 0 0 -1 0 360)">
	<stop  offset="0" style="stop-color:#2581C4"/>
	<stop  offset="1" style="stop-color:#2D2E83"/>
</linearGradient>
<path class="st2" d="M290.41,266.58c-25.3,40.08-69.99,66.69-120.9,66.69c-50.9,0-95.58-26.61-120.9-66.69
	c4.51-10.48,11.98-19.5,24.03-26.47c11.02-6.38,26.42-10.65,43.48-13.31c17.05-2.66,35.76-3.74,53.38-3.74
	c35.25,0,74.82,4.29,96.87,17.05C278.43,247.07,285.9,256.1,290.41,266.58z"/>
<path class="st3" d="M204.73,225.15V191.1h-70.41v34.05c-10.69,1.82-18.13,5.47-18.13,13.14c0,14.97,20.28,30.54,53.33,30.54
	c34.24,0,53.33-15.57,53.33-30.54C222.86,230.61,215.42,226.96,204.73,225.15z"/>
<path class="st3" d="M126.55,149.44c0-10.58-4.64-23.45-10.36-23.45s-11.58,2.04-11.58,12.62c0,5.09,1.81,16.5,3.56,21.51
	c1.89,5.39,5.05,8.49,8.02,8.49C121.91,168.59,126.55,160.02,126.55,149.44z"/>
<path class="st4" d="M212.49,149.44c0-10.58,4.64-23.45,10.36-23.45s11.59,2.04,11.59,12.62c0,5.09-1.81,16.5-3.56,21.51
	c-1.89,5.39-5.05,8.49-8.02,8.49C217.13,168.59,212.49,160.02,212.49,149.44z"/>
<path class="st5" d="M204.73,199.06v18.07c-1.47,1.28-3,2.49-4.61,3.62c-6.14,4.32-10.46,7.1-14.48,8.79
	c-4.04,1.7-7.76,2.32-12.69,2.32c-9.86,0-14.91-2.48-27.16-11.11c-4.32-3.05-8.15-6.64-11.47-10.8v-10.88
	c2.44,2.54,5.13,4.84,8.03,6.89c12.26,8.64,17.31,11.12,27.18,11.12c4.93,0,8.66-0.62,12.69-2.32c4.02-1.7,8.34-4.48,14.48-8.8
	C199.61,203.91,202.29,201.62,204.73,199.06z"/>
<path class="st3" d="M169.52,60.94L169.52,60.94L169.52,60.94c-42.38,0-53.94,36.53-53.94,81.58c0,29.88,9.34,51.17,26.77,63.45
	c12.26,8.64,17.31,11.11,27.17,11.11l0,0l0,0c9.86,0,14.91-2.47,27.17-11.11c17.43-12.28,26.77-33.57,26.77-63.45
	C223.46,97.46,211.9,60.94,169.52,60.94z"/>
<path class="st4" d="M169.52,60.94c-0.73,0-1.43,0.04-2.15,0.06c37.5,1.23,47.83,37.25,47.83,81.52c0,29.88-8.63,51.17-24.72,63.45
	c-10.47,7.99-15.25,10.7-23.11,11.06c0.69,0.03,1.4,0.05,2.15,0.05c9.86,0,14.91-2.47,27.17-11.11
	c17.43-12.28,26.77-33.57,26.77-63.45C223.46,97.46,211.9,60.94,169.52,60.94z"/>
<path class="st6" d="M236.96,82.08c-1.05-8.46-7.57-29.28-17.33-30.61c-4.43-0.6-7.22,1.9-10.59,0.33
	c-2.75-1.28-14.63-15.87-24.83-20.97c-12.36-6.18-30.44-9.99-42.71-6.01c-15.06,4.89-14.46,17.25-20.22,22.01
	c-5.77,4.78-15.65,10.26-16.47,17.38c-1.25,10.76,4.02,19.28,3.63,29.45c-0.31,8.19-5.14,16.05-3.15,24.35
	c1.06,4.41,6.48,7.62,7.29,12.13c0.47,2.6,1.11,8.89,3.01,11.01c4.08,4.54,4.1-24.56,5.05-33.24c0.79-7.3,3.08-15.48,7.29-21.7
	c5.4-8,14.07-7.06,22.55-5.21c8.62,1.88,16.68,3.61,25.64,2.56c8.95-1.05,18.44-5.06,27.17-0.87c8.2,3.94,12.96,12.85,14.91,21.35
	c0.97,4.25,0.14,33.05,4.67,34.95c2.38,1,3.22-8.49,7.74-11.71c3.87-2.76,5.01-6.07,5.87-10.65
	C238.59,105.42,238.35,93.38,236.96,82.08z"/>
<path class="st5" d="M222.85,139.01c-4.52-1.91-3.69-30.71-4.66-34.95c-1.95-8.5-6.71-17.41-14.91-21.35
	c-8.73-4.2-18.22-0.19-27.17,0.86c-8.95,1.06-17.02-0.69-25.64-2.56c-8.49-1.85-17.15-2.79-22.55,5.2
	c-4.2,6.22-6.49,14.4-7.28,21.71c-0.87,8.05-0.97,33.72-4.24,33.72c3.48,0.38,4.9-20.71,5.79-27.84c0.79-6.42,2.32-17.15,6.57-22.59
	c8.1-10.42,16.79-7.63,24.93-4.72c9.02,3.22,13.47,4.93,22.42,4.01c8.95-0.91,18.45-4.45,27.17-0.75
	c8.2,3.47,13.47,10.38,14.61,19.84c0.45,3.84,0.45,28.06,4.97,29.74c0.25,0.09,0.42-0.01,0.53-0.26
	C223.21,139.1,223.04,139.09,222.85,139.01z M115.27,140.76c0.08,0.19,0.18,0.34,0.32,0.46c0.11,0.11,0.21,0.2,0.32,0.25
	c-0.11-0.08-0.21-0.19-0.32-0.3C115.48,141.05,115.37,140.9,115.27,140.76z"/>
<path class="st7" d="M147.94,36.01c15.89-12.58,55.5,10.6,50.44,5.77c-4.37-4.17-9.46-8.58-14.19-10.94
	c-12.36-6.18-30.44-9.99-42.71-6.01c-15.06,4.89-14.46,17.25-20.22,22.01c-5.77,4.78-15.65,10.26-16.47,17.38
	c-1.25,10.76,4.02,19.28,3.63,29.45c-0.31,8.19-5.14,16.05-3.15,24.35c1.06,4.41,0.23-7.86,5.8-15.58
	c5.45-7.56,4.93-21.05,0.39-33.55c-1.77-4.86,0.22-19.64,19.2-16.77C139.4,53.44,145.03,38.32,147.94,36.01z"/>
<g>
	<g>
		<defs>
			<polygon id="SVGID_4_" points="1,1 2,1 1,2 			"/>
		</defs>
		<defs>
			<polygon id="SVGID_5_" points="-1,-1 -2,-1 -1,-2 			"/>
		</defs>
		<clipPath id="SVGID_6_">
			<use xlink:href="#SVGID_4_"  style="overflow:visible;"/>
		</clipPath>
		<clipPath id="SVGID_7_" class="st8">
			<use xlink:href="#SVGID_5_"  style="overflow:visible;"/>
		</clipPath>
		
			<linearGradient id="SVGID_8_" gradientUnits="userSpaceOnUse" x1="26.61" y1="181.7801" x2="312.43" y2="181.7801" gradientTransform="matrix(1 0 0 -1 0 360)">
			<stop  offset="0" style="stop-color:#BFBFBF"/>
			<stop  offset="1" style="stop-color:#000000"/>
		</linearGradient>
		<path class="st9" d="M229.87,60.79c-2.76-4.93-6.23-8.77-10.25-9.32c-4.43-0.6-7.22,1.9-10.59,0.33
			c-2.76-1.28-14.63-15.87-24.83-20.97c-12.36-6.18-30.44-9.99-42.71-6.01c-15.06,4.89-14.46,17.25-20.22,22.01
			c-5.37,4.44-14.29,9.51-16.17,15.92C58.53,86.3,26.61,134.59,26.61,190.34c0,78.93,63.98,142.91,142.91,142.91
			s142.91-63.98,142.91-142.91C312.43,133,278.63,83.54,229.87,60.79z"/>
	</g>
</g>
</svg>
