<?xml version="1.0" encoding="utf-8"?>
<!-- Generator: Adobe Illustrator 25.2.0, SVG Export Plug-In . SVG Version: 6.00 Build 0)  -->
<svg version="1.1" id="Layer_1" xmlns="http://www.w3.org/2000/svg" xmlns:xlink="http://www.w3.org/1999/xlink" x="0px" y="0px"
	 viewBox="0 0 339.73 358.9" style="enable-background:new 0 0 339.73 358.9;" xml:space="preserve">
<style type="text/css">
	.st0{fill:url(#SVGID_2_);}
	.st1{fill:url(#SVGID_1_);}
	.st2{fill:#DADADA;}
	.st3{fill:#997163;}
	.st4{fill:#855B4D;}
	.st5{fill:#755246;}
	.st6{fill:#1D2247;}
	.st7{opacity:0.5;fill:#29235C;enable-background:new    ;}
	.st8{fill:#29235C;}
	.st9{fill:#373F85;}
	.st10{clip-path:url(#SVGID_5_);}
	.st11{clip-path:url(#SVGID_6_);fill:url(#SVGID_7_);}
</style>
  <linearGradient id="SVGID_1_" gradientUnits="userSpaceOnUse" x1="26.61" y1="181.7801" x2="312.43" y2="181.7801" gradientTransform="matrix(1 0 0 -1 0 360)">
	<stop  offset="0" style="stop-color:#0cc600"/>
	<stop  offset="1" style="stop-color:#2591ff"/>
</linearGradient>
<linearGradient id="SVGID_2_" gradientUnits="userSpaceOnUse" x1="26.59" y1="182.3062" x2="312.41" y2="182.3062" gradientTransform="matrix(1 0 0 -1 0 360)">
	<stop  offset="0" style="stop-color:#2581C4"/>
	<stop  offset="1" style="stop-color:#29235C"/>
</linearGradient>
<path class="st0" d="M225.59,53.81c0.1-1.11,0.09-1.49-1.56-3.29c-1.15-1.25-2.56-2.19-3.69-3.6c-3.21-3.99-5.65-5.51-10.05-7.91
	c-3.77-2.06-6.71-6.48-11.04-7.37c-3.94-0.81-7.45,1.15-11.55-0.08c-5.45-1.64-9.72-5.66-15.75-3.98c-3.99,1.11-5.59,4.25-9.9,2.36
	c-2.96-1.3-3.82-3.41-7.43-2.42c-2.42,0.66-3.68,2.8-5.67,4c-3.37,2.03-4.09,0.81-7.66,0.14c-5.01-0.93-9.1,1.97-12.91,4.9
	c-3.57,2.75-8.74,5.49-11.5,9.07c-1.81,2.35-1.87,5.01-2.14,7.64C62.99,74.76,26.59,125.78,26.59,185.3
	c0,78.93,63.98,142.91,142.91,142.91s142.91-63.98,142.91-142.91C312.43,126.27,276.65,75.61,225.59,53.81z"/>
<ellipse transform="matrix(0.7071 -0.7071 0.7071 0.7071 -81.3705 174.1364)" class="st1" cx="169.52" cy="185.29" rx="142.91" ry="142.91"/>
<path class="st2" d="M290.45,261.46c-25.3,40.1-70.01,66.74-120.93,66.74c-50.93,0-95.63-26.64-120.93-66.74
	c4.51-10.5,12-19.56,24.07-26.55c11.02-6.38,26.42-10.65,43.48-13.31c17.05-2.66,35.76-3.74,53.38-3.74
	c35.25,0,74.82,4.29,96.87,17.05C278.46,241.91,285.94,250.96,290.45,261.46z"/>
<path class="st3" d="M204.73,219.95V185.9h-70.41v34.05c-10.69,1.82-18.13,5.47-18.13,13.14c0,14.97,20.28,30.54,53.33,30.54
	c34.24,0,53.33-15.57,53.33-30.54C222.86,225.41,215.42,221.77,204.73,219.95z"/>
<path class="st3" d="M126.55,144.24c0-10.58-4.64-23.45-10.36-23.45s-11.58,2.04-11.58,12.62c0,5.09,1.81,16.5,3.56,21.51
	c1.89,5.39,5.05,8.49,8.02,8.49C121.91,163.4,126.55,154.82,126.55,144.24z"/>
<path class="st4" d="M212.49,144.24c0-10.58,4.64-23.45,10.36-23.45s11.59,2.04,11.59,12.62c0,5.09-1.81,16.5-3.56,21.51
	c-1.89,5.39-5.05,8.49-8.02,8.49C217.13,163.4,212.49,154.82,212.49,144.24z"/>
<path class="st5" d="M204.73,193.86v18.07c-1.47,1.29-3,2.49-4.61,3.62c-6.14,4.32-10.46,7.1-14.48,8.79
	c-4.04,1.7-7.76,2.32-12.69,2.32c-9.86,0-14.91-2.48-27.16-11.11c-4.32-3.05-8.15-6.64-11.47-10.8v-10.88
	c2.44,2.54,5.13,4.84,8.03,6.89c12.26,8.64,17.31,11.12,27.18,11.12c4.93,0,8.66-0.62,12.69-2.32c4.02-1.7,8.34-4.48,14.48-8.8
	C199.61,198.72,202.29,196.42,204.73,193.86z"/>
<path class="st3" d="M169.52,55.74L169.52,55.74L169.52,55.74c-42.38,0-53.94,36.53-53.94,81.58c0,29.88,9.34,51.17,26.77,63.45
	c12.26,8.64,17.31,11.11,27.17,11.11l0,0l0,0c9.86,0,14.91-2.47,27.17-11.11c17.43-12.28,26.77-33.57,26.77-63.45
	C223.46,92.26,211.9,55.74,169.52,55.74z"/>
<path class="st4" d="M169.52,55.74c-0.73,0-1.43,0.04-2.15,0.06c37.5,1.23,47.83,37.25,47.83,81.52c0,29.88-8.63,51.17-24.72,63.45
	c-10.47,7.99-15.25,10.7-23.11,11.06c0.69,0.03,1.4,0.05,2.15,0.05c9.86,0,14.91-2.47,27.17-11.11
	c17.43-12.28,26.77-33.57,26.77-63.45C223.46,92.26,211.9,55.74,169.52,55.74z"/>
<path class="st6" d="M223.4,138.01c-3.17,0-1.82-9.67-2-11.21c-0.28-2.44-1.72-3.98-2.26-6.22c-0.76-3.12,0.76-4.71,1.2-7.61
	c0.67-4.46-1.85-10.46-2.86-14.87c-0.98-4.28-3.08-9.28-4.9-13.29c-1.4-3.08-3.31-4.96-6.71-5.55c-5.29-0.92-7.03,1-12.08-1.79
	c-5-2.76-7.61-2.9-12.7-0.66c-5.6,2.46-8.05,2.16-13.75,0.42c-4.66-1.42-7.12,0.06-11.74,0.27c-5.98,0.27-10.69-4.17-16.93-3.33
	c-5.1,0.69-8.36,3.77-10.98,8.04c-2.12,3.46-6.26,8.86-6.86,12.85c-0.56,3.7,0.24,6.87-0.73,10.7c-0.82,3.2-1,6.42-1.2,9.73
	c-0.36,5.94,1.35,12.73-0.62,18.46c-3.81,11.07-8.48-5.86-8.74-9.94c-0.26-4.03-0.96-7.99-1.2-12.05c-0.39-6.88-3.4-11.28-5.09-17.7
	c-1.46-5.54,0.97-7.85,3.38-12.42c2.87-5.44-1.72-7.38-1.45-12.53c0.28-5.27,5.37-6.72,7.92-10.51c2.78-4.12,0.68-9.12,3.8-13.17
	c2.76-3.58,7.94-6.32,11.5-9.07c3.8-2.93,7.9-5.83,12.91-4.9c3.57,0.66,4.29,1.89,7.66-0.14c1.98-1.19,3.25-3.33,5.67-4
	c3.61-0.99,4.47,1.13,7.43,2.42c4.3,1.89,5.9-1.25,9.9-2.36c6.02-1.67,10.3,2.35,15.75,3.98c4.1,1.23,7.6-0.73,11.55,0.08
	c4.33,0.89,7.27,5.31,11.04,7.37c4.4,2.41,6.84,3.93,10.05,7.91c1.13,1.41,2.54,2.34,3.69,3.6c2.27,2.48,1.43,2.25,1.49,4.98
	c0.1,4.59,2.45,4.27,5.14,8.44c3.59,5.55,1.77,10.46,1.29,16.36c-0.42,5.13,3.09,8.41,1.11,13.66c-0.74,1.95-2.19,3.52-2.36,5.68
	c-0.24,3.05,2.13,4.91,2.35,7.78c0.26,3.45-2.22,5.33-3.41,8.33c-1.2,3.03-1.13,6.53-1.42,9.74
	C228.01,127.69,227.21,138.01,223.4,138.01z"/>
<path class="st5" d="M220.3,113.17c-0.48-3.27-2.07-6.91-2.82-9.77c-0.98-3.71-3.09-8.05-4.9-11.52c-1.4-2.66-3.31-7.19-6.71-7.69
	c-5.28-0.79-6.14,2.86-11.19,0.45c-5.01-2.4-8.5-1.64-13.59,0.3c-5.6,2.13-8.05,1.87-13.75,0.37c-4.66-1.23-7.12,0.05-11.75,0.23
	c-5.97,0.24-10.69-5.46-16.92-4.71c-5.11,0.6-6.75,6.71-9.38,10.41c-2.12,3.01-6.26,7.68-6.86,11.14c-0.56,3.22,0.24,5.96-0.73,9.28
	c-0.82,2.77-1.01,5.56-1.21,8.44c-0.37,5.15-0.27,9.43-2.24,14.39c-0.69,1.73-1.31,2.57-1.85,2.77c0.62-0.52,1.26-1.56,1.85-3.31
	c1.97-5.72,0.26-12.51,0.62-18.46c0.2-3.3,0.38-6.53,1.2-9.72c0.98-3.83,0.17-7.01,0.73-10.7c0.61-3.99,4.74-9.39,6.86-12.85
	c2.62-4.28,5.88-7.35,10.99-8.04c6.24-0.85,10.95,3.6,16.92,3.32c4.62-0.21,7.09-1.68,11.75-0.26c5.69,1.73,8.14,2.04,13.75-0.42
	c5.09-2.24,7.69-2.11,12.7,0.66c5.05,2.78,6.79,0.87,12.08,1.79c3.4,0.6,5.31,2.48,6.71,5.55c1.81,4.01,3.92,9.02,4.9,13.3
	c1.01,4.41,3.52,10.41,2.86,14.87C220.33,113.04,220.32,113.1,220.3,113.17z"/>
<path class="st7" d="M221.39,128.2c-0.3-2.07-1.72-3.39-2.25-5.31c-0.28-1.02-0.25-1.84-0.07-2.61c0.01,0.11,0.04,0.2,0.07,0.3
	c0.54,2.22,1.99,3.77,2.26,6.21C221.43,127.06,221.42,127.55,221.39,128.2z"/>
<path class="st7" d="M223.08,137.99c-1.58-0.32-1.85-2.98-1.83-5.47C221.3,135.13,221.67,137.65,223.08,137.99z"/>
<path class="st8" d="M220.3,113.17c0.17,1.1,0.21,2.16,0.04,3.13c-0.28,1.56-0.97,2.7-1.27,3.99
	C218.5,117.42,219.85,115.86,220.3,113.17z"/>
<path class="st8" d="M221.26,132.52c-0.01-1.58,0.08-3.18,0.13-4.32C221.39,128.23,221.28,130.64,221.26,132.52z"/>
<path class="st9" d="M215.14,41.91c-0.21,1.04-0.81,1.93-1.97,2.43c-1.11,0.48-3.52-2.58-6.09-3.23c-3.78-0.94-5.79,1.26-8.51,0.87
	c-5.08-0.73-5.98,0.35-9.54,3.33c-3.74,3.15-7.11,4.01-12.05,2.28c-3.47-1.21-5.35-4.95-9.17-5.25c-3.72-0.28-9.17,2.55-12.64,0.81
	c-7.07-3.54-9.94-2.19-16.41,1.79c-4.09,2.51-11.65,3.25-14.44,7.19c-1.86,2.64-1.25,6.13-2.31,9.03c-1.17,3.18-3.48,3.55-5.48,5.89
	c-2.73,3.21-1.36,5.49-1.58,9.23c-0.18,3.15-1.72,6-2.88,8.85c-2.12,5.16-2.87,8.97-2.12,14.41c0.22,1.61,1.97,8.2-0.6,8.52
	c-0.46,0.05-1-0.05-1.61-0.28c-1.04-4.73-3.18-8.51-4.5-13.54c-1.45-5.53,0.98-7.84,3.38-12.42c2.87-5.44-1.72-7.38-1.45-12.52
	c0.28-5.27,5.37-6.72,7.92-10.52c2.79-4.11,0.68-9.12,3.81-13.17c2.76-3.57,7.95-6.31,11.51-9.06c3.81-2.93,7.91-5.82,12.91-4.9
	c3.57,0.67,4.29,1.89,7.66-0.14c1.98-1.2,3.25-3.33,5.67-4c3.6-0.99,4.46,1.13,7.42,2.43c4.31,1.89,5.91-1.25,9.9-2.37
	c6.03-1.67,10.3,2.35,15.75,3.99c4.09,1.23,7.6-0.73,11.55,0.08c4.33,0.89,7.26,5.31,11.03,7.38
	C212.21,40.06,213.75,40.93,215.14,41.91z"/>
<g>
	<g>
		<defs>
			<polygon id="SVGID_3_" points="1,1 2,1 1,2 			"/>
		</defs>
		<defs>
			<polygon id="SVGID_4_" points="-1,-1 -2,-1 -1,-2 			"/>
		</defs>
		<clipPath id="SVGID_5_">
			<use xlink:href="#SVGID_3_"  style="overflow:visible;"/>
		</clipPath>
		<clipPath id="SVGID_6_" class="st10">
			<use xlink:href="#SVGID_4_"  style="overflow:visible;"/>
		</clipPath>
		
			<linearGradient id="SVGID_7_" gradientUnits="userSpaceOnUse" x1="26.59" y1="182.3062" x2="312.41" y2="182.3062" gradientTransform="matrix(1 0 0 -1 0 360)">
			<stop  offset="0" style="stop-color:#BFBFBF"/>
			<stop  offset="1" style="stop-color:#000000"/>
		</linearGradient>
		<path class="st11" d="M225.59,53.81c0.1-1.11,0.09-1.49-1.56-3.29c-1.15-1.25-2.56-2.19-3.69-3.6c-3.21-3.99-5.65-5.51-10.05-7.91
			c-3.77-2.06-6.71-6.48-11.04-7.37c-3.94-0.81-7.45,1.15-11.55-0.08c-5.45-1.64-9.72-5.66-15.75-3.98
			c-3.99,1.11-5.59,4.25-9.9,2.36c-2.96-1.3-3.82-3.41-7.43-2.42c-2.42,0.66-3.68,2.8-5.67,4c-3.37,2.03-4.09,0.81-7.66,0.14
			c-5.01-0.93-9.1,1.97-12.91,4.9c-3.57,2.75-8.74,5.49-11.5,9.07c-1.81,2.35-1.87,5.01-2.14,7.64
			C62.99,74.76,26.59,125.78,26.59,185.3c0,78.93,63.98,142.91,142.91,142.91s142.91-63.98,142.91-142.91
			C312.43,126.27,276.65,75.61,225.59,53.81z"/>
	</g>
</g>
</svg>
