<?xml version="1.0" encoding="utf-8"?>
<!-- Generator: Adobe Illustrator 25.2.0, SVG Export Plug-In . SVG Version: 6.00 Build 0)  -->
<svg version="1.1" id="Layer_1" xmlns="http://www.w3.org/2000/svg" xmlns:xlink="http://www.w3.org/1999/xlink" x="0px" y="0px"
	 viewBox="0 0 339.73 358.9" style="enable-background:new 0 0 339.73 358.9;" xml:space="preserve">
<style type="text/css">
	.st0{fill:url(#SVGID_1_);}
	.st1{fill:url(#SVGID_2_);}
	.st2{fill:#FF527C;}
	.st3{fill:#ECA182;}
	.st4{fill:#FBCBAB;}
	.st5{fill:#DB9172;}
	.st6{fill:#1D2247;}
	.st7{fill:#29235C;}
	.st8{fill:#373F85;}
	.st9{clip-path:url(#SVGID_5_);}
	.st10{clip-path:url(#SVGID_6_);fill:url(#SVGID_7_);}
</style>
<linearGradient id="SVGID_1_" gradientUnits="userSpaceOnUse" x1="26.62" y1="182.1" x2="312.44" y2="182.1" gradientTransform="matrix(1 0 0 -1 0 360)">
	<stop  offset="0" style="stop-color:#2581C4"/>
	<stop  offset="1" style="stop-color:#29235C"/>
</linearGradient>
<linearGradient id="SVGID_2_" gradientUnits="userSpaceOnUse" x1="26.62" y1="182.7486" x2="312.44" y2="182.7486" gradientTransform="matrix(1 0 0 -1 0 360)">
	<stop  offset="0" style="stop-color:#ff81C4"/>
	<stop  offset="1" style="stop-color:#2923ff"/>
</linearGradient>
<path class="st0" d="M222.43,74.33c-4.47-6.93-10.78-12.74-19.51-16.8c3.93-5.23,6.21-11.43,6.21-18.09
	c0-18.59-17.73-33.67-39.61-33.67s-39.61,15.07-39.61,33.67c0,6.27,2.02,12.14,5.54,17.17c-10.74,4.29-17.64,10.92-22.06,19.06
	c-51.02,21.81-86.77,72.46-86.77,131.45c0,78.93,63.98,142.91,142.91,142.91s142.91-63.98,142.91-142.91
	C312.43,146.88,275.16,95.36,222.43,74.33z"/>
<circle class="st1" cx="169.52" cy="207.12" r="142.91"/>
<path class="st2" d="M279.8,298.02c-26.22,31.76-65.88,52.01-110.28,52.01s-84.06-20.24-110.26-51.99
	c1.16-21.79,6.99-40.71,26.13-52.96c9.57-6.13,22.95-10.23,37.77-12.79c14.81-2.57,31.06-3.6,46.36-3.6
	c30.63,0,64.99,4.13,84.15,16.39C272.79,257.33,278.64,276.23,279.8,298.02z"/>
<path class="st3" d="M209.48,156.9c0-7.98,4.46-17.69,9.96-17.69s11.14,1.54,11.14,9.52c0,3.84-1.74,12.45-3.43,16.22
	c-1.82,4.06-4.86,6.4-7.71,6.4C213.94,171.35,209.48,164.88,209.48,156.9z"/>
<path class="st4" d="M169.52,76.32L169.52,76.32L169.52,76.32c-38.82,0-49.41,33.46-49.41,74.73c0,27.37,8.56,46.88,24.52,58.13
	c11.23,7.91,15.86,10.18,24.89,10.18l0,0l0,0c9.03,0,13.66-2.26,24.89-10.18c15.96-11.25,24.52-30.75,24.52-58.13
	C218.93,109.78,208.34,76.32,169.52,76.32z"/>
<path class="st4" d="M129.56,156.9c0-7.98-4.46-17.69-9.96-17.69s-11.14,1.54-11.14,9.52c0,3.84,1.74,12.45,3.43,16.22
	c1.82,4.06,4.86,6.4,7.71,6.4C125.1,171.35,129.56,164.88,129.56,156.9z"/>
<path class="st4" d="M192.58,226.53v-19.2h-46.11v19.2c0,2.55-1.43,4.9-3.72,6.01c-5.18,2.51-8.55,6.84-8.55,14.5
	c0,18.05,13.43,36.82,35.32,36.82c22.68,0,35.32-18.76,35.32-36.82c0-7.66-3.37-11.99-8.55-14.5
	C194.01,231.43,192.58,229.07,192.58,226.53z"/>
<path class="st5" d="M192.57,210.46v15.89c-7.62,4.96-12.07,6.51-19.52,6.51c-9.03,0-13.65-2.28-24.89-10.18
	c-0.58-0.41-1.14-0.82-1.7-1.25v-10.97c9.94,6.87,14.54,8.9,23.05,8.9C178.04,219.36,182.64,217.33,192.57,210.46z"/>
<ellipse class="st6" cx="169.52" cy="39.44" rx="39.61" ry="33.67"/>
<path class="st7" d="M218.63,159.38c0.1-1.48,0.18-2.98,0.23-4.51C218.86,156.3,218.78,157.79,218.63,159.38z"/>
<path class="st8" d="M145.13,42.66c0,13.42,9.24,25.01,22.62,30.41c-21.05-0.78-37.83-15.53-37.83-33.63
	c0-18.59,17.73-33.66,39.6-33.66c6.08,0,11.84,1.17,17,3.25C158.21,4.08,145.13,24.05,145.13,42.66z"/>
<path class="st3" d="M169.52,76.32c-0.69,0-1.35,0.03-2.02,0.06c34.23,1.16,43.67,34.14,43.67,74.68c0,27.38-7.88,46.87-22.59,58.12
	c-9.55,7.3-13.92,9.79-21.07,10.13c0.65,0.03,1.32,0.05,2.02,0.05c9.03,0,13.66-2.26,24.89-10.18
	c15.96-11.25,24.52-30.75,24.52-58.12C218.93,109.78,208.34,76.32,169.52,76.32z"/>
<path class="st5" d="M218.93,151.04c0,0.78-0.01,1.56-0.03,2.31c0,0.44-0.01,0.86-0.04,1.29c-0.1-18.53-13.54-25.55-46.53-34.77
	c-17.27-4.82-26.95-15.85-26.95-15.85s-29.89,22.6-23.22,68.39c-0.01-0.01-0.03-0.03-0.03-0.04c-0.8-3.78-1.35-7.79-1.67-12.02
	c0,0.01,0,0.01,0.01,0.03c-0.12-1.41-0.21-2.84-0.27-4.29c-0.06-1.65-0.1-3.33-0.1-5.04c0-0.64,0-1.29,0.01-1.93
	C120.88,109.3,145,94.64,145,94.64s11.97,14.89,24.52,18.63C191.69,119.87,218.93,128.87,218.93,151.04z"/>
<path class="st6" d="M120.11,151.05c0-41.27,24.9-56.41,24.9-56.41s11.97,14.89,24.52,18.63c22.17,6.6,49.41,15.6,49.41,37.78
	c0,2.87-0.12,5.63-0.3,8.33c8.92-11.23,13.64-30.5,13.64-43.96c0-32.57-11.36-64.22-62.75-64.22c-59.61,0-63.89,33.67-63.89,70
	c0,14.68,5.95,28.23,14.84,39.17C120.24,157.38,120.11,154.27,120.11,151.05z"/>
<path class="st8" d="M144.68,71.82c13.6-4.57,80.45-7.46,51.89-16.82c-7.47-2.45-16.4-3.81-27.05-3.81
	c-59.61,0-63.89,33.67-63.89,70c0,14.68,5.95,28.23,14.84,39.17C109.81,117.63,130,76.76,144.68,71.82z"/>
<g>
	<g>
		<defs>
			<polygon id="SVGID_3_" points="1,1 2,1 1,2 			"/>
		</defs>
		<defs>
			<polygon id="SVGID_4_" points="-1,-1 -2,-1 -1,-2 			"/>
		</defs>
		<clipPath id="SVGID_5_">
			<use xlink:href="#SVGID_3_"  style="overflow:visible;"/>
		</clipPath>
		<clipPath id="SVGID_6_" class="st9">
			<use xlink:href="#SVGID_4_"  style="overflow:visible;"/>
		</clipPath>
		
			<linearGradient id="SVGID_7_" gradientUnits="userSpaceOnUse" x1="26.62" y1="182.1" x2="312.44" y2="182.1" gradientTransform="matrix(1 0 0 -1 0 360)">
			<stop  offset="0" style="stop-color:#BFBFBF"/>
			<stop  offset="1" style="stop-color:#000000"/>
		</linearGradient>
		<path class="st10" d="M222.43,74.33c-4.47-6.93-10.78-12.74-19.51-16.8c3.93-5.23,6.21-11.43,6.21-18.09
			c0-18.59-17.73-33.67-39.61-33.67s-39.61,15.07-39.61,33.67c0,6.27,2.02,12.14,5.54,17.17c-10.74,4.29-17.64,10.92-22.06,19.06
			c-51.02,21.81-86.77,72.46-86.77,131.45c0,78.93,63.98,142.91,142.91,142.91s142.91-63.98,142.91-142.91
			C312.43,146.88,275.16,95.36,222.43,74.33z"/>
	</g>
</g>
</svg>
