<?xml version="1.0" encoding="utf-8"?>
<!-- Generator: Adobe Illustrator 25.2.0, SVG Export Plug-In . SVG Version: 6.00 Build 0)  -->
<svg version="1.1" id="Layer_1" xmlns="http://www.w3.org/2000/svg" xmlns:xlink="http://www.w3.org/1999/xlink" x="0px" y="0px"
	 viewBox="0 0 339.73 358.9" style="enable-background:new 0 0 339.73 358.9;" xml:space="preserve">
<style type="text/css">
	.st0{fill:url(#SVGID_1_);}
	.st1{fill:url(#SVGID_2_);}
	.st2{fill:#DADADA;}
	.st3{fill:#1D2247;}
	.st4{fill:#855B4D;}
	.st5{fill:#997163;}
	.st6{fill:#755246;}
	.st7{fill:#29235C;}
	.st8{fill:#373F85;}
	.st9{clip-path:url(#SVGID_5_);}
	.st10{clip-path:url(#SVGID_6_);fill:url(#SVGID_7_);}
</style>
<linearGradient id="SVGID_1_" gradientUnits="userSpaceOnUse" x1="26.62" y1="182.7486" x2="312.44" y2="182.7486" gradientTransform="matrix(1 0 0 -1 0 360)">
	<stop  offset="0" style="stop-color:#2581C4"/>
	<stop  offset="1" style="stop-color:#29235C"/>
</linearGradient>
<linearGradient id="SVGID_2_" gradientUnits="userSpaceOnUse" x1="26.62" y1="182.7486" x2="312.44" y2="182.7486" gradientTransform="matrix(1 0 0 -1 0 360)">
	<stop  offset="0" style="stop-color:#ff81C4"/>
	<stop  offset="1" style="stop-color:#2923ff"/>
</linearGradient>
<path class="st0" d="M224.5,53.82c-0.19-0.23-0.4-0.46-0.65-0.68c-3.27-2.88-6.01-1.5-8.3-5.9c-1.48-2.85-1.38-5.17-4.04-7.41
	c-2.35-1.98-5.81-3.82-8.71-4.93c-2.84-1.09-5.49-0.93-8.44-1.41c-3.62-0.59-6.45-3.03-10.02-3.62c-3.39-0.56-6.16,0.52-9.5-0.85
	c-3.64-1.49-5.51-3.59-9.91-3.12c-2.94,0.31-5.24,1.96-7.95,2.89c-3.95,1.36-7.45-0.2-11.33,0.59c-6.77,1.38-5.78,5.17-10.27,7.85
	c-2.12,1.26-5.88,1.95-8.2,3.19c-3.83,2.05-2.32,5.02-3.32,8.66c-0.15,0.53-0.27,0.97-0.39,1.36
	C67.14,69.6,26.62,122.95,26.62,185.76c0,78.93,63.98,142.91,142.91,142.91s142.91-63.98,142.91-142.91
	C312.43,126.32,276.13,75.36,224.5,53.82z"/>
<circle class="st1" cx="169.52" cy="185.77" r="142.91"/>
<path class="st2" d="M279.8,276.67c-26.22,31.76-65.88,52.01-110.28,52.01s-84.06-20.24-110.26-51.99
	c1.16-21.79,6.98-40.71,26.13-52.96c9.57-6.13,22.95-10.23,37.77-12.79c14.81-2.57,31.06-3.6,46.36-3.6
	c30.63,0,64.99,4.13,84.15,16.39C272.79,235.97,278.64,254.88,279.8,276.67z"/>
<path class="st3" d="M256.74,126.74c-1.89-4.69,2.54-7.05,2.63-13.18c0.04-2.68-1.71-5.63-3.96-7.52c-2.88-2.42-6.37-3.4-9.47-5.39
	c-2.99-1.93-4.77-7.06-4.82-10.93c-0.06-4.63,0.08-12.54-4.3-16.93c-4.01-4.03-9.17-5.69-10.52-11.63c-0.66-2.89,0.02-5.83-2.45-8
	c-3.27-2.88-6.01-1.5-8.3-5.9c-1.48-2.85-1.38-5.17-4.04-7.41c-2.35-1.98-5.81-3.82-8.71-4.93c-2.84-1.09-5.49-0.93-8.44-1.41
	c-3.62-0.59-6.45-3.03-10.02-3.62c-3.39-0.55-6.16,0.52-9.5-0.85c-3.64-1.49-5.51-3.59-9.91-3.12c-2.94,0.31-5.24,1.96-7.95,2.89
	c-3.95,1.36-7.45-0.2-11.33,0.59c-6.77,1.38-5.78,5.17-10.27,7.85c-2.12,1.26-5.88,1.95-8.2,3.19c-3.83,2.05-2.32,5.02-3.32,8.66
	c-0.95,3.45-1.02,3.57-4.25,5.04c-3.03,1.38-9.43,1.45-12.19,9.09c-0.98,2.72-0.51,6.51-2.14,7.55c-2.74,1.75-4.17,0.6-7.23-0.16
	c-3.25-0.8-5.25,0.02-6.8,2.36c-0.82,1.24-1.29,3.67-2.63,4.42c-2.34,1.33-5.25,0.33-7.61,1.63c-2.04,1.13-3.86,3.32-3.35,6.23
	c0.44,2.57,0.76,5.3,0.65,7.51c-0.22,4.31-5.16,4.48-4.38,9.42c0.72,4.53,8.67,4.09,5.02,9.12c-1.4,1.93-3.51,3.69-4.71,6.14
	c-1.93,3.94-1.61,6.67-0.88,8.12c2.08,4.16,1.44,7.88,5.23,11.02c2.56,2.13,4.66,1.98,6.32,5.39c0.99,2.04-0.52,4.04-1.1,6.86
	c-0.94,4.61,0.93,9.27,5.19,10.71c1.8,0.61,4.9,0.88,6.14,2.69c1.85,2.7,0.78,3.93,0.96,7.05c0.48,7.99,8.42,3.79,12.48,7.76
	c2.46,2.4,0.82,5.62,2.19,8.27c1.16,2.23,2.61,3.81,8.8,3.81c2.98,0,3.23,5,5.79,6.35c3.77,1.99,6.03-1.64,9.36,1.33
	c4.2,3.75,6.02,6.48,11.91,7.9c10.85,2.61,22.95,3.65,34.02,2.17c4.84-0.65,10.68-1.67,14.94-4.26c2.24-1.36,2.67-2.56,4.15-4.39
	c1.62-2,3.37-2.77,5.2-4.39c2.88-2.55,2.74-6.17,5.31-8.74c4.06-4.05,11.06-4.86,14.71-9.71c0.65-0.86,0.63-2.54,1.6-3.61
	c3.47-3.85,8.17,1.47,11.7-1.72c2.52-2.29,1.2-4.16,4.86-5.03c2.55-0.61,3,0.71,5.59-1.44c4.31-3.59,4.35-8.95,6.32-13.79
	c2.14-5.25,5.18-5.78,6.87-10.8c0.72-2.14,0.31-5.42-1.03-7.47C259.6,129.64,257.71,129.13,256.74,126.74z"/>
<path class="st4" d="M209.48,135.55c0-7.98,4.46-17.69,9.96-17.69s11.14,1.54,11.14,9.52c0,3.84-1.74,12.45-3.43,16.22
	c-1.82,4.06-4.86,6.4-7.71,6.4C213.94,150,209.48,143.53,209.48,135.55z"/>
<path class="st5" d="M169.52,54.97L169.52,54.97L169.52,54.97c-38.82,0-49.41,33.46-49.41,74.73c0,27.37,8.56,46.88,24.52,58.13
	c11.23,7.91,15.86,10.18,24.89,10.18l0,0l0,0c9.03,0,13.66-2.26,24.89-10.18c15.96-11.25,24.52-30.75,24.52-58.13
	C218.93,88.43,208.34,54.97,169.52,54.97z"/>
<path class="st5" d="M129.56,135.55c0-7.98-4.46-17.69-9.96-17.69s-11.14,1.54-11.14,9.52c0,3.84,1.74,12.45,3.43,16.22
	c1.82,4.06,4.86,6.4,7.71,6.4C125.1,150,129.56,143.53,129.56,135.55z"/>
<path class="st5" d="M192.58,202.91v-16.94h-46.11v16.94c0,3.63-1.91,6.91-4.9,8.97c-4.5,3.1-7.36,10.64-7.36,17.69
	c0,18.05,13.43,47.96,35.32,47.96c22.68,0,35.32-29.91,35.32-47.96c0-7.06-2.86-14.59-7.36-17.69
	C194.49,209.82,192.58,206.54,192.58,202.91z"/>
<path class="st6" d="M192.57,189.11V205c-7.62,4.96-12.07,6.51-19.52,6.51c-9.03,0-13.65-2.28-24.89-10.18
	c-0.58-0.41-1.14-0.82-1.7-1.25v-10.97c9.94,6.87,14.54,8.9,23.05,8.9C178.04,198.01,182.64,195.98,192.57,189.11z"/>
<path class="st7" d="M218.63,138.02c0.1-1.48,0.18-2.98,0.23-4.51C218.86,134.95,218.78,136.44,218.63,138.02z"/>
<path class="st4" d="M169.52,54.97c-0.69,0-1.35,0.03-2.02,0.06c34.23,1.16,43.67,34.14,43.67,74.68c0,27.38-7.88,46.87-22.59,58.12
	c-9.55,7.3-13.92,9.79-21.07,10.13c0.65,0.03,1.32,0.05,2.02,0.05c9.03,0,13.66-2.26,24.89-10.18
	c15.96-11.25,24.52-30.75,24.52-58.12C218.93,88.43,208.34,54.97,169.52,54.97z"/>
<path class="st3" d="M232.27,99.86c0-30.42-16.98-53.1-47.61-57.95c-14.67-2.32-33.5-2.87-46.51,5.55
	c-9.03,5.83-12.88,15.69-17.21,25.03c-2.34,5.04-4.9,10.01-8.34,14.4c-4.52,5.78-11.01,9.67-14.6,16.2
	c-6.68,12.14-2.44,28.15,7.89,36.93c2.53,2.15,9.78,6.91,13.38,3.99c3.27-2.65-0.47-12.62-0.22-16.51c0.28-4.39,1.89-8.31,2.6-12.5
	c0.76-4.47,5.04-5.9,7.35-6.7c4.54-1.57,5.28-6.25,8.46-8.74c3.46-2.71,7.99,0.44,11.9-1.57c2.48-1.27,3.47-4.52,6.91-6.11
	c3.13-1.45,7.23-1.04,10.35-1.5c5.17-0.76,6.85-2.95,11.02-6.12c2.46-1.87,9.06-10.63,11.68-10.82c1.93-0.14,5.83,3.76,7.11,4.86
	c3.64,3.13,8.45,7.16,10.9,11.11c1.22,1.97,1.42,4.61,2.73,7.41c1.47,3.15,3.93,5.58,4.34,9.02c0.16,1.35,0.5,3.93,1.61,6.25
	c1.58,3.31,0.78,4.96,0.64,8.24c-0.22,5.3,2.87,15.46,10.26,12.1C235.73,128.44,232.27,107.26,232.27,99.86z"/>
<path class="st6" d="M216.79,118.61c-0.15-0.57-0.4-1.18-0.78-1.88c-1.11-1.99-1.44-4.2-1.61-5.36c-0.4-2.96-2.87-5.04-4.33-7.75
	c-1.31-2.4-1.52-4.67-2.74-6.35c-2.44-3.39-7.25-6.85-10.9-9.54c-1.27-0.95-5.18-4.29-7.11-4.18c-2.62,0.17-9.22,7.69-11.67,9.3
	c-4.18,2.73-5.86,4.6-11.03,5.25c-3.11,0.4-7.21,0.05-10.35,1.3c-3.43,1.36-4.44,4.15-6.9,5.25c-3.91,1.72-8.45-0.99-11.91,1.34
	c-3.16,2.15-3.91,6.16-8.45,7.51c-2.31,0.69-6.6,1.92-7.35,5.75c-0.66,3.37-2.11,6.52-2.53,10c-0.06-0.66-0.1-1.25-0.06-1.74
	c0.28-4.38,1.89-8.31,2.6-12.5c0.76-4.47,5.04-5.9,7.35-6.7c4.54-1.57,5.28-6.25,8.45-8.74c3.46-2.71,8,0.44,11.91-1.57
	c2.47-1.27,3.47-4.51,6.9-6.11c3.14-1.45,7.24-1.04,10.35-1.5c5.17-0.76,6.85-2.94,11.03-6.12c2.46-1.88,9.05-10.63,11.67-10.83
	c1.93-0.14,5.84,3.77,7.11,4.86c3.65,3.14,8.46,7.17,10.9,11.12c1.22,1.97,1.43,4.6,2.74,7.41c1.47,3.15,3.93,5.58,4.33,9.03
	c0.17,1.35,0.5,3.93,1.61,6.25C217.29,114.77,217.01,116.36,216.79,118.61z"/>
<path class="st8" d="M215.55,47.24c-0.53-1-9.08-2.37-10.27-2.64c-6.27-1.4-11.84-1.34-17.83,0.98c-2.61,1.02-4.9,2.17-7.7,2.56
	c-2.65,0.37-7.89-0.59-10.22,0.99c-4.29,2.92-3.18,6.35-9.05,6.36c-10.22,0.04-19.63-9.66-29.57-2.34
	c-3.42,2.52-4.74,8.13-8.27,10.02c-4.47,2.39-7.7-1.14-9.71,5.28c-1.26,4.02-0.8,5.77-5.21,7.78c-2.48,1.12-6.72,0.54-8.73,2.46
	c-3.15,3.02,0.69,5.93,1.38,9.09c0.89,4.17-2.46,6.76-2.34,10.54c0.09,3.03,2.73,4.15,3.12,7.33c0.48,3.87,0.04,8.54-3.32,10.79
	c-2.97,1.99-6.75,3.12-8.73,6.42c-2.97,4.94,1.47,6.72,3.51,10.36c1.65,2.92,4.14,6.63,4.18,10.04c0.06,4.18-1.66,3.45-4.2,6.53
	c-1.92,2.31,0.94,5.73-0.37,8.09c-0.39,0.68-1.34,1.31-2.57,1.86c-0.24-0.06-0.46-0.13-0.67-0.21c-4.26-1.44-6.12-6.09-5.19-10.71
	c0.58-2.83,2.1-4.82,1.11-6.87c-1.66-3.41-3.75-3.27-6.33-5.39c-3.78-3.15-3.14-6.85-5.22-11.02c-0.72-1.45-1.04-4.18,0.89-8.13
	c1.2-2.44,3.3-4.2,4.71-6.13c3.65-5.03-4.31-4.59-5.01-9.12c-0.78-4.94,4.17-5.1,4.37-9.42c0.12-2.2-0.21-4.94-0.64-7.51
	c-0.5-2.91,1.31-5.1,3.36-6.22c2.35-1.3,5.26-0.31,7.6-1.63c1.34-0.76,1.81-3.19,2.64-4.42c1.54-2.34,3.55-3.16,6.8-2.35
	c3.06,0.76,4.49,1.9,7.23,0.15c1.63-1.04,1.17-4.83,2.15-7.55c2.76-7.64,9.17-7.71,12.19-9.1c3.24-1.47,3.3-1.58,4.26-5.03
	c1-3.64-0.5-6.61,3.32-8.67c2.33-1.23,6.08-1.93,8.2-3.19c4.49-2.67,3.5-6.47,10.27-7.84c3.87-0.8,7.37,0.77,11.33-0.59
	c2.7-0.94,5-2.58,7.95-2.89c4.41-0.48,6.27,1.63,9.91,3.12c3.34,1.36,6.11,0.28,9.5,0.85c3.56,0.58,6.4,3.02,10.02,3.61
	c2.96,0.48,5.61,0.31,8.45,1.4c2.89,1.12,6.35,2.96,8.7,4.94C214.17,42.08,214.06,44.4,215.55,47.24z"/>
<g>
	<g>
		<defs>
			<polygon id="SVGID_3_" points="1,1 2,1 1,2 			"/>
		</defs>
		<defs>
			<polygon id="SVGID_4_" points="-1,-1 -2,-1 -1,-2 			"/>
		</defs>
		<clipPath id="SVGID_5_">
			<use xlink:href="#SVGID_3_"  style="overflow:visible;"/>
		</clipPath>
		<clipPath id="SVGID_6_" class="st9">
			<use xlink:href="#SVGID_4_"  style="overflow:visible;"/>
		</clipPath>
		
			<linearGradient id="SVGID_7_" gradientUnits="userSpaceOnUse" x1="26.62" y1="182.7486" x2="312.44" y2="182.7486" gradientTransform="matrix(1 0 0 -1 0 360)">
			<stop  offset="0" style="stop-color:#BFBFBF"/>
			<stop  offset="1" style="stop-color:#000000"/>
		</linearGradient>
		<path class="st10" d="M224.5,53.82c-0.19-0.23-0.4-0.46-0.65-0.68c-3.27-2.88-6.01-1.5-8.3-5.9c-1.48-2.85-1.38-5.17-4.04-7.41
			c-2.35-1.98-5.81-3.82-8.71-4.93c-2.84-1.09-5.49-0.93-8.44-1.41c-3.62-0.59-6.45-3.03-10.02-3.62c-3.39-0.56-6.16,0.52-9.5-0.85
			c-3.64-1.49-5.51-3.59-9.91-3.12c-2.94,0.31-5.24,1.96-7.95,2.89c-3.95,1.36-7.45-0.2-11.33,0.59c-6.77,1.38-5.78,5.17-10.27,7.85
			c-2.12,1.26-5.88,1.95-8.2,3.19c-3.83,2.05-2.32,5.02-3.32,8.66c-0.15,0.53-0.27,0.97-0.39,1.36
			C67.14,69.6,26.62,122.95,26.62,185.76c0,78.93,63.98,142.91,142.91,142.91s142.91-63.98,142.91-142.91
			C312.43,126.32,276.13,75.36,224.5,53.82z"/>
	</g>
</g>
</svg>
