<?xml version="1.0" encoding="utf-8"?>
<!-- Generator: Adobe Illustrator 25.2.0, SVG Export Plug-In . SVG Version: 6.00 Build 0)  -->
<svg version="1.1" id="Layer_1" xmlns="http://www.w3.org/2000/svg" xmlns:xlink="http://www.w3.org/1999/xlink" x="0px" y="0px"
	 viewBox="0 0 339.73 358.9" style="enable-background:new 0 0 339.73 358.9;" xml:space="preserve">
<style type="text/css">
	.st0{fill:url(#SVGID_1_);}
	.st1{fill:url(#SVGID_2_);}
	.st2{fill:#1D2247;}
	.st3{fill:#373F85;}
	.st4{fill:#FF527C;}
	.st5{fill:#FBCBAB;}
	.st6{fill:#DB9172;}
	.st7{fill:#ECA182;}
	.st8{fill:#29235C;}
	.st9{clip-path:url(#SVGID_5_);}
	.st10{clip-path:url(#SVGID_6_);fill:url(#SVGID_7_);}
</style>
<linearGradient id="SVGID_1_" gradientUnits="userSpaceOnUse" x1="26.62" y1="182.945" x2="312.44" y2="182.945" gradientTransform="matrix(1 0 0 -1 0 360)">
	<stop  offset="0" style="stop-color:#2581C4"/>
	<stop  offset="1" style="stop-color:#29235C"/>
</linearGradient>
<linearGradient id="SVGID_2_" gradientUnits="userSpaceOnUse" x1="26.62" y1="182.7486" x2="312.44" y2="182.7486" gradientTransform="matrix(1 0 0 -1 0 360)">
	<stop  offset="0" style="stop-color:#ff81C4"/>
	<stop  offset="1" style="stop-color:#2923ff"/>
</linearGradient>
<path class="st0" d="M220.49,51.4c-9.87-13.83-25.91-25.14-50.97-25.14c-27.93,0-44.19,11.72-53.58,26.17
	c-52.37,21.2-89.32,72.54-89.32,132.51c0,78.93,63.98,142.91,142.91,142.91s142.91-63.98,142.91-142.91
	C312.43,123.97,274.24,71.93,220.49,51.4z"/>
<ellipse class="st1" cx="169.52" cy="184.94" rx="142.91" ry="142.91"/>
<polygon class="st2" points="234.43,231.33 103.47,231.33 103.47,99.03 234.43,93.25 "/>
<polygon class="st3" points="114.42,98.55 103.47,99.03 103.47,231.33 114.42,231.33 "/>
<path class="st4" d="M279.79,275.85c-26.22,31.76-65.88,52.01-110.28,52.01c-44.38,0-84.05-20.24-110.26-51.99
	c1.16-21.79,6.99-40.72,26.13-52.97c9.57-6.13,22.95-10.23,37.77-12.79c14.81-2.57,31.06-3.6,46.36-3.6
	c30.63,0,64.99,4.13,84.15,16.39C272.8,235.14,278.63,254.05,279.79,275.85z"/>
<path class="st5" d="M192.57,202.07v-16.94h-46.11v16.94c0,3.63-1.91,6.91-4.9,8.97c-4.5,3.1-7.36,10.64-7.36,17.69
	c0,18.05,13.43,47.96,35.32,47.96c22.68,0,35.32-29.91,35.32-47.96c0-7.06-2.86-14.59-7.36-17.69
	C194.48,208.98,192.57,205.7,192.57,202.07z"/>
<path class="st6" d="M192.57,188.29v15.89c-7.62,4.96-12.07,6.51-19.52,6.51c-9.03,0-13.65-2.28-24.89-10.18
	c-0.58-0.41-1.14-0.82-1.7-1.25v-10.97c9.94,6.87,14.54,8.9,23.05,8.9C178.04,197.18,182.64,195.15,192.57,188.29z"/>
<path class="st7" d="M209.48,134.73c0-7.98,4.46-17.69,9.96-17.69s11.14,1.54,11.14,9.52c0,3.84-1.74,12.45-3.43,16.22
	c-1.82,4.06-4.86,6.4-7.71,6.4C213.94,149.18,209.48,142.71,209.48,134.73z"/>
<path class="st5" d="M169.52,54.14L169.52,54.14L169.52,54.14c-38.82,0-49.41,33.46-49.41,74.73c0,27.38,8.56,46.88,24.52,58.13
	c11.23,7.91,15.86,10.18,24.89,10.18l0,0l0,0c9.03,0,13.66-2.26,24.89-10.18c15.96-11.25,24.52-30.75,24.52-58.13
	C218.93,87.6,208.34,54.14,169.52,54.14z"/>
<path class="st8" d="M218.7,125.17c-0.45-3.6-1.59-6.81-3.27-9.71C217.13,118.24,218.26,121.44,218.7,125.17z"/>
<path class="st7" d="M169.52,54.14c-0.69,0-1.35,0.03-2.02,0.06c34.23,1.16,43.67,34.14,43.67,74.68c0,27.38-7.88,46.87-22.59,58.12
	c-9.55,7.3-13.92,9.79-21.07,10.13c0.65,0.03,1.32,0.05,2.02,0.05c9.03,0,13.66-2.26,24.89-10.18
	c15.96-11.25,24.52-30.75,24.52-58.12C218.93,87.6,208.34,54.14,169.52,54.14z"/>
<path class="st2" d="M120.11,128.87c0-41.27,24.9-60.18,24.9-60.18s10.15,16.55,28.31,22.34c22.04,7.02,45.62,15.67,45.62,37.85
	c0,2.87,15.5-22.17,15.5-35.63c0-19.46-13.52-66.99-64.91-66.99c-59.61,0-66.05,53.36-66.05,72.77c0,14.68,8.11,28.23,17.01,39.17
	C120.24,135.2,120.11,132.1,120.11,128.87z"/>
<path class="st3" d="M144.54,45.31c-23.4,4.95-30.12,45.8-30.12,84.74c-6.21-9.24-10.95-19.8-10.95-31.01
	c0-19.43,6.45-72.78,66.06-72.78c0.85,0,1.68,0.01,2.51,0.04c0.75,0.03,1.48,0.05,2.2,0.1c0.64,0.04,1.27,0.08,1.89,0.14
	c0.78,0.05,1.57,0.13,2.33,0.23c0.51,0.05,1,0.12,1.5,0.19c0.42,0.05,0.82,0.12,1.23,0.18c0.6,0.09,1.21,0.19,1.81,0.31
	c0.68,0.12,1.35,0.26,2.02,0.4c0.01,0.01,0.03,0.01,0.04,0.01c0.68,0.14,1.35,0.31,2.01,0.48c0.62,0.15,1.22,0.31,1.81,0.49
	c0.09,0.03,0.19,0.05,0.28,0.08c0.48,0.14,0.95,0.28,1.43,0.44c0.17,0.05,0.33,0.1,0.5,0.15c0.58,0.19,1.14,0.39,1.7,0.59
	c0.48,0.17,0.95,0.35,1.4,0.53c0.31,0.12,0.62,0.23,0.91,0.36c0.42,0.17,0.85,0.35,1.26,0.53c3.78,1.61,6.21,2.91,7.5,3.97
	C212.18,42.33,173.15,39.25,144.54,45.31z"/>
<path class="st6" d="M215.2,115.07c-7.14-11.21-23.54-15.42-40.45-19.3c-20.53-4.72-28.45-14.95-28.45-14.95
	s-25.77,12.92-25.83,57.38c-0.23-3.01-0.36-6.11-0.36-9.33c0-41.27,24.89-60.18,24.89-60.18s10.14,16.56,28.3,22.35
	C190.07,96.37,207.71,102.64,215.2,115.07z"/>
<g>
	<g>
		<defs>
			<polygon id="SVGID_3_" points="1,1 2,1 1,2 			"/>
		</defs>
		<defs>
			<polygon id="SVGID_4_" points="-1,-1 -2,-1 -1,-2 			"/>
		</defs>
		<clipPath id="SVGID_5_">
			<use xlink:href="#SVGID_3_"  style="overflow:visible;"/>
		</clipPath>
		<clipPath id="SVGID_6_" class="st9">
			<use xlink:href="#SVGID_4_"  style="overflow:visible;"/>
		</clipPath>
		
			<linearGradient id="SVGID_7_" gradientUnits="userSpaceOnUse" x1="26.62" y1="182.945" x2="312.44" y2="182.945" gradientTransform="matrix(1 0 0 -1 0 360)">
			<stop  offset="0" style="stop-color:#BFBFBF"/>
			<stop  offset="1" style="stop-color:#000000"/>
		</linearGradient>
		<path class="st10" d="M220.49,51.4c-9.87-13.83-25.91-25.14-50.97-25.14c-27.93,0-44.19,11.72-53.58,26.17
			c-52.37,21.2-89.32,72.54-89.32,132.51c0,78.93,63.98,142.91,142.91,142.91s142.91-63.98,142.91-142.91
			C312.43,123.97,274.24,71.93,220.49,51.4z"/>
	</g>
</g>
</svg>
